<mxfile host="app.diagrams.net"><diagram id="service-arch" name="Microservices Architecture"><mxGraphModel><root><mxCell id="0" /><mxCell id="1" parent="0" />
<mxCell id="2" value="API Orchestrator" style="rounded=1;whiteSpace=wrap;html=1;fillColor=#dae8fc;strokeColor=#6c8ebf" vertex="1" parent="1"><mxGeometry x="360" y="80" width="160" height="60" as="geometry"/></mxCell>
<mxCell id="3" value="User Service" style="rounded=1;whiteSpace=wrap;html=1;fillColor=#e1d5e7;strokeColor=#9673a6" vertex="1" parent="1"><mxGeometry x="80" y="200" width="140" height="60" as="geometry"/></mxCell>
<mxCell id="4" value="Course Service" style="rounded=1;whiteSpace=wrap;html=1;fillColor=#ffe6cc;strokeColor=#d79b00" vertex="1" parent="1"><mxGeometry x="260" y="200" width="140" height="60" as="geometry"/></mxCell>
<mxCell id="5" value="Payment Service" style="rounded=1;whiteSpace=wrap;html=1;fillColor=#f8cecc;strokeColor=#b85450" vertex="1" parent="1"><mxGeometry x="440" y="200" width="140" height="60" as="geometry"/></mxCell>
<mxCell id="6" value="Progress Service" style="rounded=1;whiteSpace=wrap;html=1;fillColor=#d5e8d4;strokeColor=#82b366" vertex="1" parent="1"><mxGeometry x="620" y="200" width="140" height="60" as="geometry"/></mxCell>
<mxCell id="7" value="Notification Service" style="rounded=1;whiteSpace=wrap;html=1;fillColor=#f8ecc6;strokeColor=#bfa243" vertex="1" parent="1"><mxGeometry x="800" y="200" width="160" height="60" as="geometry"/></mxCell>
<mxCell id="8" value="Kafka" style="ellipse;whiteSpace=wrap;html=1;fillColor=#fff2cc;strokeColor=#d6b656" vertex="1" parent="1"><mxGeometry x="520" y="340" width="100" height="60" as="geometry"/></mxCell>
<mxCell id="9" value="Redis" style="ellipse;whiteSpace=wrap;html=1;fillColor=#f8cecc;strokeColor=#b85450" vertex="1" parent="1"><mxGeometry x="360" y="340" width="80" height="60" as="geometry"/></mxCell>
<mxCell id="10" value="PostgreSQL" style="ellipse;whiteSpace=wrap;html=1;fillColor=#dae8fc;strokeColor=#6c8ebf" vertex="1" parent="1"><mxGeometry x="180" y="340" width="100" height="60" as="geometry"/></mxCell>
<mxCell id="11" value="MongoDB" style="ellipse;whiteSpace=wrap;html=1;fillColor=#d5e8d4;strokeColor=#82b366" vertex="1" parent="1"><mxGeometry x="700" y="340" width="100" height="60" as="geometry"/></mxCell>
<mxCell id="12" value="Auth0" style="ellipse;whiteSpace=wrap;html=1;fillColor=#f8cecc;strokeColor=#b85450" vertex="1" parent="1"><mxGeometry x="360" y="0" width="100" height="60" as="geometry"/></mxCell>
<mxCell id="13" value="Client (Web/ Mobile)" style="rounded=1;whiteSpace=wrap;html=1;fillColor=#ffffff;strokeColor=#000000" vertex="1" parent="1"><mxGeometry x="360" y="-100" width="160" height="60" as="geometry"/></mxCell>
<!-- Connections -->
<mxCell id="14" style="edgeStyle=orthogonalEdgeStyle;rounded=0;orthogonalLoop=1;jettySize=auto;html=1;endArrow=block;endFill=1;strokeColor=#000000;" edge="1" parent="1" source="13" target="2"><mxGeometry relative="1" as="geometry"/></mxCell>
<mxCell id="15" style="edgeStyle=orthogonalEdgeStyle;rounded=0;orthogonalLoop=1;jettySize=auto;html=1;endArrow=block;endFill=1;strokeColor=#000000;" edge="1" parent="1" source="2" target="12"><mxGeometry relative="1" as="geometry"/></mxCell>
<mxCell id="16" style="edgeStyle=orthogonalEdgeStyle;rounded=0;orthogonalLoop=1;jettySize=auto;html=1;endArrow=block;endFill=1;strokeColor=#000000;" edge="1" parent="1" source="2" target="3"><mxGeometry relative="1" as="geometry"/></mxCell>
<mxCell id="17" style="edgeStyle=orthogonalEdgeStyle;rounded=0;orthogonalLoop=1;jettySize=auto;html=1;endArrow=block;endFill=1;strokeColor=#000000;" edge="1" parent="1" source="2" target="4"><mxGeometry relative="1" as="geometry"/></mxCell>
<mxCell id="18" style="edgeStyle=orthogonalEdgeStyle;rounded=0;orthogonalLoop=1;jettySize=auto;html=1;endArrow=block;endFill=1;strokeColor=#000000;" edge="1" parent="1" source="2" target="5"><mxGeometry relative="1" as="geometry"/></mxCell>
<mxCell id="19" style="edgeStyle=orthogonalEdgeStyle;rounded=0;orthogonalLoop=1;jettySize=auto;html=1;endArrow=block;endFill=1;strokeColor=#000000;" edge="1" parent="1" source="2" target="6"><mxGeometry relative="1" as="geometry"/></mxCell>
<mxCell id="20" style="edgeStyle=orthogonalEdgeStyle;rounded=0;orthogonalLoop=1;jettySize=auto;html=1;endArrow=block;endFill=1;strokeColor=#000000;" edge="1" parent="1" source="2" target="7"><mxGeometry relative="1" as="geometry"/></mxCell>
<mxCell id="21" style="edgeStyle=orthogonalEdgeStyle;rounded=0;orthogonalLoop=1;jettySize=auto;html=1;endArrow=block;endFill=1;strokeColor=#000000;" edge="1" parent="1" source="3" target="8"><mxGeometry relative="1" as="geometry"/></mxCell>
<mxCell id="22" style="edgeStyle=orthogonalEdgeStyle;rounded=0;orthogonalLoop=1;jettySize=auto;html=1;endArrow=block;endFill=1;strokeColor=#000000;" edge="1" parent="1" source="4" target="8"><mxGeometry relative="1" as="geometry"/></mxCell>
<mxCell id="23" style="edgeStyle=orthogonalEdgeStyle;rounded=0;orthogonalLoop=1;jettySize=auto;html=1;endArrow=block;endFill=1;strokeColor=#000000;" edge="1" parent="1" source="5" target="8"><mxGeometry relative="1" as="geometry"/></mxCell>
<mxCell id="24" style="edgeStyle=orthogonalEdgeStyle;rounded=0;orthogonalLoop=1;jettySize=auto;html=1;endArrow=block;endFill=1;strokeColor=#000000;" edge="1" parent="1" source="6" target="8"><mxGeometry relative="1" as="geometry"/></mxCell>
<mxCell id="25" style="edgeStyle=orthogonalEdgeStyle;rounded=0;orthogonalLoop=1;jettySize=auto;html=1;endArrow=block;endFill=1;strokeColor=#000000;" edge="1" parent="1" source="7" target="8"><mxGeometry relative="1" as="geometry"/></mxCell>
<mxCell id="26" style="edgeStyle=orthogonalEdgeStyle;rounded=0;orthogonalLoop=1;jettySize=auto;html=1;endArrow=block;endFill=1;strokeColor=#000000;" edge="1" parent="1" source="3" target="9"><mxGeometry relative="1" as="geometry"/></mxCell>
<mxCell id="27" style="edgeStyle=orthogonalEdgeStyle;rounded=0;orthogonalLoop=1;jettySize=auto;html=1;endArrow=block;endFill=1;strokeColor=#000000;" edge="1" parent="1" source="4" target="9"><mxGeometry relative="1" as="geometry"/></mxCell>
<mxCell id="28" style="edgeStyle=orthogonalEdgeStyle;rounded=0;orthogonalLoop=1;jettySize=auto;html=1;endArrow=block;endFill=1;strokeColor=#000000;" edge="1" parent="1" source="5" target="9"><mxGeometry relative="1" as="geometry"/></mxCell>
<mxCell id="29" style="edgeStyle=orthogonalEdgeStyle;rounded=0;orthogonalLoop=1;jettySize=auto;html=1;endArrow=block;endFill=1;strokeColor=#000000;" edge="1" parent="1" source="6" target="9"><mxGeometry relative="1" as="geometry"/></mxCell>
<mxCell id="30" style="edgeStyle=orthogonalEdgeStyle;rounded=0;orthogonalLoop=1;jettySize=auto;html=1;endArrow=block;endFill=1;strokeColor=#000000;" edge="1" parent="1" source="7" target="11"><mxGeometry relative="1" as="geometry"/></mxCell>
</root></mxGraphModel></diagram></mxfile>
